<svg xmlns="http://www.w3.org/2000/svg" width="226" height="54" viewBox="0 0 226 54" fill="none">
  <g clip-path="url(#clip0_englewood)">
    <path d="M0.515625 21.2162C3.29164 21.1104 3.95259 20.8196 3.95259 19.8018V3.00029C3.95259 1.98242 3.29164 1.67838 0.515625 1.58585V0.52832H18.1631L18.2557 6.6091L17.2378 6.63554C16.0745 2.9342 15.4929 1.74448 11.7915 1.74448H7.09873V10.3633H9.04194C11.4875 10.3633 12.4128 10.1386 13.2324 6.70164H14.1181V15.294H13.2324C12.4128 11.8571 11.4875 11.6324 9.04194 11.6324H7.09873V21.0179H11.7915C16.1538 21.0179 17.2113 19.2994 18.3614 15.4659L19.3793 15.5056L19.2206 22.2737H0.515625V21.2162Z" fill="#002D62"></path>
    <path d="M28.8821 3.96528H28.8556V17.0522C28.8556 20.0926 29.2522 20.8593 32.4248 21.3087V22.2605H24.0703V21.3087C27.005 20.8064 27.5337 20.0926 27.5337 17.0522V3.83309C27.5337 2.61694 26.7406 1.65194 24.0703 1.58585V0.52832H30.2436L42.5374 17.4091H42.577V5.71021C42.577 2.70947 41.8897 1.94276 38.7435 1.4801V0.52832H47.1376V1.4801C44.203 2.00886 43.899 2.69625 43.899 5.71021V22.7893H42.6167L28.8821 3.96528Z" fill="#002D62"></path>
    <path d="M50.2984 11.461C50.2984 4.65312 55.4803 0 61.561 0C63.5703 0 65.7515 0.555202 66.8487 1.05753L67.7344 0H68.7522V6.3716H67.7608C66.4389 2.86854 64.2313 1.18972 61.2173 1.18972C57.5821 1.18972 53.8543 4.49449 53.8543 11.3949C53.8543 18.2952 57.8861 21.6 61.4817 21.6C63.491 21.6 64.9848 21.2034 65.9101 20.4764V14.3295C65.9101 13.2984 65.2492 13.0076 62.4732 12.9018V11.8443H71.2242V12.9018C69.2149 13.0076 69.0431 13.2323 69.0431 14.3295V21.0977C67.1659 22.1288 63.8876 22.7897 61.7461 22.7897C55.6389 22.7897 50.2852 18.9562 50.2852 11.461H50.2984Z" fill="#002D62"></path>
    <path d="M74.6343 21.2162C77.4103 21.1105 78.0713 20.8196 78.0713 19.8018V3.00029C78.0713 1.98242 77.4103 1.67838 74.6343 1.58585V0.52832H84.6412V1.58585C81.8652 1.67838 81.2042 1.98242 81.2042 3.00029V21.0047H84.7998C89.1621 21.0047 90.18 19.4581 91.4358 14.9636L92.4537 15.0297L92.2289 22.2605H74.6211V21.203L74.6343 21.2162Z" fill="#002D62"></path>
    <path d="M96.9082 21.2162C99.6842 21.1104 100.345 20.8196 100.345 19.8018V3.00029C100.345 1.98242 99.6842 1.67838 96.9082 1.58585V0.52832H114.556L114.648 6.6091L113.63 6.63554C112.467 2.9342 111.885 1.74448 108.184 1.74448H103.491V10.3633H105.435C107.88 10.3633 108.805 10.1386 109.625 6.70164H110.511V15.294H109.625C108.805 11.8571 107.88 11.6324 105.435 11.6324H103.491V21.0179H108.184C112.546 21.0179 113.604 19.2994 114.754 15.4659L115.772 15.5056L115.613 22.2737H96.9082V21.2162Z" fill="#002D62"></path>
    <path d="M134.332 4.22967C133.777 2.51118 133.142 1.82379 131.027 1.49331V0.52832H140.016V1.4801C137.306 1.63872 136.976 2.36577 137.346 3.55549L141.801 17.8982H141.933L145.925 5.71021C147.009 2.44509 146.679 1.94276 143.572 1.4801V0.52832H151.57V1.4801C149.323 1.94276 148.371 2.9342 147.445 5.67055L141.761 22.7893H140.281L135.561 8.04998L129.943 22.7893H128.463L122.686 3.81987C122.223 2.33934 121.655 1.9692 119.223 1.4801V0.52832H128.304V1.4801C125.766 1.63872 125.555 2.29968 125.925 3.55549L130.089 17.9247H130.181L134.834 5.80274L134.332 4.21645V4.22967Z" fill="#002D62"></path>
    <path d="M153.354 11.461C153.354 4.49449 157.98 0 163.731 0C169.481 0 174.108 4.3623 174.108 11.3288C174.108 18.2952 169.481 22.7897 163.731 22.7897C157.98 22.7897 153.354 18.4671 153.354 11.461ZM170.538 11.3949C170.538 4.32264 167.604 1.18972 163.598 1.18972C159.593 1.18972 156.923 4.32264 156.923 11.3949C156.923 18.4671 159.857 21.6 163.863 21.6C167.868 21.6 170.538 18.4935 170.538 11.3949Z" fill="#002D62"></path>
    <path d="M178.984 11.461C178.984 4.49449 183.611 0 189.361 0C195.112 0 199.738 4.3623 199.738 11.3288C199.738 18.2952 195.112 22.7897 189.361 22.7897C183.611 22.7897 178.984 18.4671 178.984 11.461ZM196.169 11.3949C196.169 4.32264 193.235 1.18972 189.229 1.18972C185.224 1.18972 182.554 4.32264 182.554 11.3949C182.554 18.4671 185.488 21.6 189.494 21.6C193.499 21.6 196.169 18.4935 196.169 11.3949Z" fill="#002D62"></path>
    <path d="M203.375 21.2162C206.151 21.1104 206.812 20.8196 206.812 19.8018V3.00029C206.812 1.98242 206.151 1.67838 203.375 1.58585V0.52832H212.43C220.56 0.52832 224.486 4.71877 224.486 10.9714C224.486 17.224 221.049 22.2737 212.721 22.2737H203.375V21.2162ZM212.496 21.084C219.33 21.084 220.917 17.3166 220.917 11.1697C220.917 5.02281 218.048 1.71804 212.192 1.71804H209.945V21.084H212.483H212.496Z" fill="#002D62"></path>
    <path d="M40.4883 52.9422C43.2643 52.8365 43.9252 52.5457 43.9252 51.5278V34.7395C43.9252 33.7217 43.2643 33.4176 40.4883 33.3251V32.2676H50.2308V33.3251C47.2961 33.4176 47.0582 33.6556 47.0582 34.7395V42.1422H57.2633V34.7395C57.2633 33.6424 57.0386 33.4176 54.0907 33.3251V32.2676H63.8332V33.3251C61.0572 33.4176 60.3962 33.7217 60.3962 34.7395V51.5278C60.3962 52.5457 61.0572 52.8497 63.8332 52.9422V53.9998H54.0907V52.9422C57.0254 52.8365 57.2633 52.6118 57.2633 51.5278V43.332H47.0582V51.5278C47.0582 52.6118 47.2829 52.8497 50.2308 52.9422V53.9998H40.4883V52.9422Z" fill="#00A3E0"></path>
    <path d="M68.5938 52.9422C71.3698 52.8365 72.0307 52.5457 72.0307 51.5278V34.7395C72.0307 33.7217 71.3698 33.4176 68.5938 33.3251V32.2676H86.2412L86.3338 38.3484L85.3159 38.3748C84.1526 34.6735 83.571 33.4837 79.8696 33.4837H75.1769V42.1026H77.1201C79.5656 42.1026 80.4909 41.8779 81.3105 38.4409H82.1962V47.0333H81.3105C80.4909 43.5963 79.5656 43.3716 77.1201 43.3716H75.1769V52.7572H79.8696C84.2319 52.7572 85.2895 51.0387 86.4395 47.2052L87.4574 47.2448L87.2988 54.013H68.5938V52.9555V52.9422Z" fill="#00A3E0"></path>
    <path d="M105.29 45.8303H97.8869L96.6311 49.069C95.4149 52.1755 95.5735 52.5721 98.4421 53.0347V53.9865H91.2773V53.0347C93.5246 52.5721 94.2516 51.2898 95.3753 48.4477L102.011 31.9238H103.492L110.167 50.3248C110.762 51.9772 111.423 52.7042 113.869 53.0347V53.9865H104.126V53.0347C106.995 52.8761 107.524 52.2416 106.902 50.4967L105.29 45.8435V45.8303ZM104.867 44.6406L101.866 35.8896H101.734L98.3628 44.6406H104.867Z" fill="#00A3E0"></path>
    <path d="M117.65 52.9422C120.426 52.8365 121.087 52.5457 121.087 51.5278V34.7395C121.087 33.7217 120.426 33.4176 117.65 33.3251V32.2676H127.657V33.3251C124.881 33.4176 124.22 33.7217 124.22 34.7395V52.744H127.815C132.178 52.744 133.196 51.1973 134.451 46.7028L135.469 46.7689L135.245 53.9998H117.637V52.9422H117.65Z" fill="#00A3E0"></path>
    <path d="M141.946 52.9422C144.88 52.8365 145.607 52.5457 145.607 51.5278V33.4573H143.955C140.782 33.4573 140.187 35.1758 138.866 39.1019L137.848 39.0358L138.046 32.2676H156.354L156.579 39.0358L155.561 39.1019C154.464 35.4005 153.737 33.4573 150.472 33.4573H148.753V51.5278C148.753 52.5457 149.48 52.8497 152.415 52.9422V53.9998H141.946V52.9422Z" fill="#00A3E0"></path>
    <path d="M161.152 52.9422C163.928 52.8365 164.589 52.5457 164.589 51.5278V34.7395C164.589 33.7217 163.928 33.4176 161.152 33.3251V32.2676H170.895V33.3251C167.96 33.4176 167.722 33.6556 167.722 34.7395V42.1422H177.927V34.7395C177.927 33.6424 177.703 33.4176 174.755 33.3251V32.2676H184.497V33.3251C181.721 33.4176 181.06 33.7217 181.06 34.7395V51.5278C181.06 52.5457 181.721 52.8497 184.497 52.9422V53.9998H174.755V52.9422C177.689 52.8365 177.927 52.6118 177.927 51.5278V43.332H167.722V51.5278C167.722 52.6118 167.96 52.8497 170.895 52.9422V53.9998H161.152V52.9422Z" fill="#00A3E0"></path>
  </g>
  <defs>
    <clipPath id="clip0_englewood">
      <rect width="225" height="54" fill="white" transform="translate(0.5)"></rect>
    </clipPath>
  </defs>
</svg>
